<?xml version="1.0" encoding="utf-8"?>            <svg
              version="1.1"
              id="Layer_1"
              xmlns="http://www.w3.org/2000/svg"
              xmlns:xlink="http://www.w3.org/1999/xlink"
              x="0px"
              y="0px"
              viewBox="0 0 122.88 69.4"
              style="enable-background: new 0 0 122.88 69.4"
              xml:space="preserve"
              color="#f31559"
            >
              <g>
                <path
                  style="fill: currentColor"
                  class="st0"
                  d="M7.85,0h107.18c4.32,0,7.85,3.53,7.85,7.85v53.69c0,4.32-3.53,7.85-7.85,7.85H7.85C3.53,69.4,0,65.87,0,61.55 V7.85C0,3.53,3.53,0,7.85,0L7.85,0z M16.46,14.59h18.32v7.86H27.3v7.52h6.63v7.47H27.3v16.52H16.46V14.59L16.46,14.59z M37.41,14.59h7.66c5.11,0,8.56,0.18,10.37,0.56c1.81,0.37,3.28,1.33,4.42,2.86c1.14,1.53,1.71,3.97,1.71,7.33 c0,3.06-0.4,5.12-1.21,6.17c-0.8,1.05-2.39,1.68-4.76,1.89c2.14,0.51,3.59,1.18,4.33,2.02c0.74,0.84,1.19,1.62,1.37,2.32 c0.18,0.7,0.27,2.65,0.27,5.82v10.39H51.52v-13.1c0-2.11-0.18-3.41-0.53-3.92c-0.34-0.51-1.25-0.75-2.74-0.75v17.77H37.41V14.59 L37.41,14.59z M48.25,21.31v8.76c1.21,0,2.05-0.16,2.54-0.47c0.48-0.32,0.73-1.34,0.73-3.08v-2.17c0-1.25-0.24-2.07-0.7-2.46 C50.35,21.5,49.49,21.31,48.25,21.31L48.25,21.31z M65.76,14.59h18.06v7.86H76.6v7.52h6.74v7.47H76.6v8.66h7.95v7.86H65.76V14.59 L65.76,14.59z M87.63,14.59h18.06v7.86h-7.21v7.52h6.74v7.47h-6.74v8.66h7.95v7.86H87.63V14.59L87.63,14.59z"
                />
              </g>
            </svg>